<svg xmlns="http://www.w3.org/2000/svg" width="36.2" height="36.2" viewBox="0 0 36.2 36.2">
  <defs>
    <style>
      .cls-1 {
        fill: #fafafa;
        stroke: #dcdcdc;
        stroke-width: 0.2px;
      }

      .cls-2 {
        fill: #ff314f;
      }
    </style>
  </defs>
  <g id="组_56121" data-name="组 56121" transform="translate(-184.9 -232.9)">
    <g id="组_56118" data-name="组 56118" transform="translate(1 34)">
      <g id="组_73" data-name="组 73" transform="translate(172 -359)">
        <g id="组_41" data-name="组 41" transform="translate(-51 256)">
          <g id="组_5" data-name="组 5" transform="translate(63 302)">
            <path id="路径_14582" data-name="路径 14582" class="cls-1" d="M0,18A18,18,0,1,0,18,0,18,18,0,0,0,0,18Z"/>
          </g>
        </g>
      </g>
    </g>
    <path id="路径_32460" data-name="路径 32460" class="cls-2" d="M38.358,18.043a.337.337,0,0,0-.187-.575l-7.224-1.05a.025.025,0,0,1-.019-.014L27.7,9.858a.337.337,0,0,0-.6,0L23.861,16.4a.026.026,0,0,1-.019.014l-7.224,1.05a.337.337,0,0,0-.187.575l5.227,5.1a.024.024,0,0,1,.007.022l-1.234,7.2a.337.337,0,0,0,.49.356l6.462-3.4a.026.026,0,0,1,.023,0l6.462,3.4a.337.337,0,0,0,.49-.355l-1.234-7.2a.026.026,0,0,1,.007-.022Zm-5.543,5.171,1.234,7.2a.025.025,0,0,1-.037.026l-6.461-3.4A.338.338,0,0,0,27.383,27V9.985a.026.026,0,0,1,.011,0,.023.023,0,0,1,.023.014l3.231,6.546a.336.336,0,0,0,.254.184l7.224,1.05a.023.023,0,0,1,.02.017.023.023,0,0,1-.006.026l-5.228,5.1a.338.338,0,0,0-.1.3Z" transform="translate(175.671 230.33)"/>
  </g>
</svg>
